<svg width="395.99999999999994" height="109.83509983251292" viewBox="0 0 406 112.6087134646471" class="css-1j8o68f"><defs id="SvgjsDefs2662"><linearGradient id="SvgjsLinearGradient2671"><stop id="SvgjsStop2672" stop-color="#147d6c" offset="0"></stop><stop id="SvgjsStop2673" stop-color="#1effff" offset="1"></stop></linearGradient></defs><g id="SvgjsG2663" featurekey="symbolFeature-0" transform="matrix(3.634414835073994,0,0,3.634414835073994,-8.131672879095715,-1.8462827951404064)" fill="url(#SvgjsLinearGradient2671)"><title xmlns="http://www.w3.org/2000/svg">a</title><g xmlns="http://www.w3.org/2000/svg" data-name="09 Network"><path d="M25.874,16c3.122-3.006,4.588-5.934,3.543-7.746C28.5,6.66,25.858,6.265,22.165,7.129A1.9,1.9,0,0,0,20.6,6.217C19.5,2.592,17.838.508,16,.508c-2.088,0-3.894,2.628-4.944,6.939-4.162-1.2-7.427-1-8.473.807S3,12.99,6.119,15.994c-3.211,3.065-4.582,5.94-3.536,7.752.611,1.059,1.979,1.566,3.843,1.566a17.252,17.252,0,0,0,4.635-.769C12.1,28.755,13.907,31.492,16,31.492c1.852,0,3.465-2.007,4.575-5.634a1.9,1.9,0,0,0,1.622-.975,15.246,15.246,0,0,0,3.38.444c1.9,0,3.236-.535,3.84-1.581C30.463,21.934,29,19.006,25.874,16Zm2.677-7.246c.746,1.293-.493,3.808-3.4,6.577a34.033,34.033,0,0,0-3.392-2.653c-.08-.986-.2-1.942-.35-2.872a1.9,1.9,0,0,0,1.039-1.688c0-.01,0-.019,0-.029C25.607,7.357,27.88,7.592,28.551,8.753ZM20.418,22.061A1.9,1.9,0,0,0,19,22.843q-.915-.35-1.841-.766.888-.456,1.785-.974c.6-.347,1.176-.7,1.738-1.066C20.612,20.726,20.525,21.4,20.418,22.061Zm-1.973-1.824c-.831.479-1.643.907-2.439,1.3-.817-.4-1.636-.828-2.452-1.3-.833-.481-1.612-.972-2.351-1.466-.059-.888-.095-1.808-.095-2.77,0-.456.014-.9.029-1.348a1.883,1.883,0,0,0,1.331-2.232c.356-.221.714-.441,1.086-.656.817-.471,1.635-.9,2.452-1.3.8.392,1.608.82,2.439,1.3s1.609.97,2.347,1.463c.061.907.1,1.829.1,2.773s-.04,1.866-.1,2.774C20.053,19.267,19.276,19.757,18.445,20.237Zm-3.591,1.842A32.671,32.671,0,0,1,11.788,23.3a32.6,32.6,0,0,1-.48-3.264c.564.363,1.142.722,1.746,1.071S14.254,21.77,14.854,22.079ZM11.41,11.107c.106-.837.238-1.639.394-2.4a32.631,32.631,0,0,1,3.05,1.211c-.6.309-1.2.631-1.8.977-.362.208-.707.423-1.055.637A1.882,1.882,0,0,0,11.41,11.107Zm-.8.817a.906.906,0,1,1-.906.906A.908.908,0,0,1,10.608,11.924ZM9.547,14.412a1.91,1.91,0,0,0,.589.258c-.014.44-.028.88-.028,1.33,0,.7.023,1.378.055,2.048a32.652,32.652,0,0,1-2.576-2.037C8.188,15.477,8.845,14.942,9.547,14.412Zm10.884-4.4q.151.955.253,1.952c-.563-.361-1.137-.719-1.739-1.066s-1.2-.666-1.792-.972q.907-.408,1.8-.753A1.9,1.9,0,0,0,20.431,10.012Zm1.406,3.941A32.8,32.8,0,0,1,24.424,16c-.766.677-1.634,1.363-2.587,2.048.033-.675.055-1.356.055-2.048S21.87,14.627,21.837,13.953Zm-.388-5.836a.906.906,0,1,1-.906-.906A.907.907,0,0,1,21.449,8.117ZM16,1.508c1.342,0,2.681,1.849,3.627,4.948a1.9,1.9,0,0,0-.99,1.661c0,.036.008.069.01.1-.878.334-1.761.706-2.649,1.129A34.181,34.181,0,0,0,12.02,7.744C12.939,3.982,14.447,1.508,16,1.508ZM3.448,8.754C4.2,7.462,6.991,7.278,10.84,8.408q-.246,1.2-.417,2.534A1.885,1.885,0,0,0,8.9,13.651q-1.111.84-2.051,1.676C3.94,12.56,2.7,10.046,3.448,8.754Zm0,14.492c-.778-1.348.61-3.888,3.41-6.565a34.394,34.394,0,0,0,3.384,2.644,34.015,34.015,0,0,0,.6,4.267C6.993,24.723,4.2,24.539,3.448,23.246ZM16,30.492c-1.493,0-3.051-2.33-4-6.23a34.363,34.363,0,0,0,3.986-1.616c.893.424,1.781.8,2.664,1.135a1.68,1.68,0,0,0-.017.174,1.9,1.9,0,0,0,.971,1.651C18.663,28.666,17.332,30.492,16,30.492Zm4.543-5.631a.906.906,0,1,1,.906-.906A.906.906,0,0,1,20.543,24.861Zm8.009-1.615c-.673,1.162-2.946,1.4-6.107.666A1.9,1.9,0,0,0,21.4,22.261c.157-.951.28-1.93.361-2.937a33.942,33.942,0,0,0,3.393-2.655C28.058,19.439,29.3,21.953,28.552,23.246Z"></path></g></g><g id="SvgjsG2664" featurekey="textGroupContainer" transform="matrix(1,0,0,1,405,2)" fill="#ffffff"><rect xmlns="http://www.w3.org/2000/svg" y="0" height="1" width="1" opacity="0"></rect><rect xmlns="http://www.w3.org/2000/svg" y="0" x="-285" width="5" height="110"></rect></g><g id="SvgjsG2665" featurekey="nameFeature-0" transform="matrix(2.1910606490776456,0,0,2.1910606490776456,135.37072554946022,17.291847817438004)" fill="#ffffff"><path d="M12.22 20 l-3.1 0 l-2.98 -4.66 l-0.04 0 l-1.98 0 l0 4.66 l-2.92 0 l0 -14 l4.9 0 c3.14 0 5.18 1.9 5.18 4.76 c0 1.9 -0.92 3.32 -2.48 4.04 z M4.12 8.68 l0 4.14 l1.8 0 c1.44 0 2.44 -0.56 2.44 -2.06 c0 -1.48 -1 -2.08 -2.44 -2.08 l-1.8 0 z M20.98 5.800000000000001 c3.9 0 7.26 2.94 7.26 7.2 s-3.36 7.2 -7.26 7.2 s-7.26 -2.94 -7.26 -7.2 s3.36 -7.2 7.26 -7.2 z M20.98 17.46 c2.36 0 4.22 -1.86 4.22 -4.46 s-1.86 -4.46 -4.22 -4.46 s-4.22 1.86 -4.22 4.46 s1.86 4.46 4.22 4.46 z M35.34 6 c3.98 0 7.1 3.12 7.1 6.92 c0 3.96 -3.12 7.08 -7.1 7.08 l-5 0 l0 -14 l5 0 z M35.32 17.240000000000002 c2.68 0 4.12 -1.94 4.12 -4.32 c0 -2.22 -1.44 -4.16 -4.12 -4.16 l-2.06 0 l0 8.48 l2.06 0 z M55.46 20 l-3.1 0 l-2.98 -4.66 l-0.04 0 l-1.98 0 l0 4.66 l-2.92 0 l0 -14 l4.9 0 c3.14 0 5.18 1.9 5.18 4.76 c0 1.9 -0.92 3.32 -2.48 4.04 z M47.36 8.68 l0 4.14 l1.8 0 c1.44 0 2.44 -0.56 2.44 -2.06 c0 -1.48 -1 -2.08 -2.44 -2.08 l-1.8 0 z M59.98 6 l0 14 l-2.92 0 l0 -14 l2.92 0 z M74.14 18.5 c-1.24 1.12 -2.9 1.7 -4.76 1.7 c-3.92 0 -7.3 -2.94 -7.3 -7.2 s3.38 -7.2 7.3 -7.2 c1.84 0 3.48 0.6 4.68 1.66 l-1.76 1.98 c-0.74 -0.52 -1.74 -0.9 -2.76 -0.9 c-2.52 0 -4.42 1.86 -4.42 4.46 s1.9 4.46 4.42 4.46 c1.06 0 2.1 -0.4 2.86 -1 z M83 5.800000000000001 c3.9 0 7.26 2.94 7.26 7.2 s-3.36 7.2 -7.26 7.2 s-7.26 -2.94 -7.26 -7.2 s3.36 -7.2 7.26 -7.2 z M83 17.46 c2.36 0 4.22 -1.86 4.22 -4.46 s-1.86 -4.46 -4.22 -4.46 s-4.22 1.86 -4.22 4.46 s1.86 4.46 4.22 4.46 z M97.36 6 c3.98 0 7.1 3.12 7.1 6.92 c0 3.96 -3.12 7.08 -7.1 7.08 l-5 0 l0 -14 l5 0 z M97.34 17.240000000000002 c2.68 0 4.12 -1.94 4.12 -4.32 c0 -2.22 -1.44 -4.16 -4.12 -4.16 l-2.06 0 l0 8.48 l2.06 0 z M109.38 17.32 l5.92 0 l0 2.68 l-6.32 0 l-2.52 0 l0 -14 l2.92 0 l5.74 0 l0 2.68 l-5.74 0 l0 2.96 l4.34 0 l0 2.64 l-4.34 0 l0 3.04 z"></path></g><g id="SvgjsG2666" featurekey="sloganFeature-0" transform="matrix(0.8361763021389149,0,0,0.8361763021389149,137.4146775454306,68.12014087355722)" fill="#ffffff"><path d="M18.62 5.08 l2.3 0 l-4.76 14.92 l-2.36 0 l-2.88 -8.82 l-2.8 8.82 l-2.36 0 l-5.06 -14.92 l2.24 0 l3.96 11.16 l2.8 -8.8 l-0.76 -2.36 l2.24 0 l3.76 11.16 z M26 14.02 l0 3.8 l9.2 0 l0 2.18 l-11.38 0 l0 -14.92 l10.5 0 l0 2.2 l-8.32 0 l0 4.52 q0.62 -0.36 1.38 -0.48 q0.56 -0.1 1.44 -0.1 l3.26 0 l0 2.22 l-3.26 0 q-0.82 0 -1.44 0.1 q-0.76 0.14 -1.38 0.48 z M40.86 7.279999999999999 l0 4.56 q0.62 -0.36 1.4 -0.5 q0.58 -0.1 1.44 -0.1 l2.56 0 q1.04 0 1.63 -0.52 t0.59 -1.54 q0 -1.9 -2.22 -1.9 l-5.4 0 z M40.86 14.059999999999999 l0 3.76 l5.62 0 q0.66 0 1.26 -0.24 q0.66 -0.24 1.04 -0.7 q0.44 -0.54 0.44 -1.24 q0 -1.2 -0.94 -1.74 q-0.74 -0.44 -2.02 -0.44 l-2.56 0 q-1.72 0 -2.84 0.6 z M51.38 15.92 q0 1.4 -0.78 2.38 q-0.68 0.86 -1.92 1.3 q-1.1 0.4 -2.42 0.4 l-7.56 0 l0 -14.92 l7.56 0 q1.28 0 2.27 0.48 t1.55 1.38 q0.58 0.94 0.58 2.22 q0 0.98 -0.35 1.75 t-0.99 1.19 q0.86 0.4 1.42 1.32 q0.64 1.06 0.64 2.5 z M63.38 7.279999999999999 l0 10.54 l3.38 0 q1.4 0 2.52 -0.72 q1.06 -0.7 1.66 -1.88 t0.6 -2.58 q0 -1.46 -0.57 -2.68 t-1.63 -1.94 q-1.14 -0.74 -2.62 -0.74 l-3.34 0 z M60.06 7.279999999999999 l-0.96 -2.2 l7.6 0 q1.98 0 3.62 1.02 q1.58 0.98 2.5 2.68 t0.92 3.7 q0 1.5 -0.59 2.97 t-1.63 2.57 q-1 1.08 -2.14 1.54 q-1.1 0.44 -2.62 0.44 l-5.52 0 l0 -12.72 l-1.18 0 z M79.32 14.02 l0 3.8 l9.2 0 l0 2.18 l-11.38 0 l0 -14.92 l10.5 0 l0 2.2 l-8.32 0 l0 4.52 q0.62 -0.36 1.38 -0.48 q0.56 -0.1 1.44 -0.1 l3.26 0 l0 2.22 l-3.26 0 q-0.82 0 -1.44 0.1 q-0.76 0.14 -1.38 0.48 z M105.41999999999999 5.08 l-6.26 14.92 l-2.58 0 l-6.16 -14.92 l2.36 0 l5.1 12.48 l5.14 -12.48 l2.4 0 z M110.39999999999999 14.02 l0 3.8 l9.2 0 l0 2.18 l-11.38 0 l0 -14.92 l10.5 0 l0 2.2 l-8.32 0 l0 4.52 q0.62 -0.36 1.38 -0.48 q0.56 -0.1 1.44 -0.1 l3.26 0 l0 2.22 l-3.26 0 q-0.82 0 -1.44 0.1 q-0.76 0.14 -1.38 0.48 z M133.56 20 l-10.46 0 l0 -14.92 l2.18 0 l0 12.74 l8.28 0 l0 2.18 z M149.05999999999997 12.440000000000001 q0 -1.6 -0.82 -2.9 q-0.78 -1.26 -2.13 -1.98 t-2.93 -0.72 q-1.64 0 -2.99 0.74 t-2.11 2.02 q-0.78 1.34 -0.78 2.98 q0 1.56 0.84 2.88 q0.8 1.24 2.15 1.97 t2.92 0.73 t2.92 -0.76 t2.13 -2.04 q0.8 -1.34 0.8 -2.92 z M151.21999999999997 12.559999999999999 q0 2.16 -1.12 3.98 q-1.08 1.74 -2.93 2.77 t-3.99 1.03 q-2.22 0 -4.08 -1.08 q-1.82 -1.04 -2.86 -2.86 q-1.08 -1.86 -1.08 -4.08 q0 -2.14 1.14 -3.94 q1.08 -1.72 2.93 -2.73 t3.97 -1.01 q2.18 0 4.04 1.06 q1.82 1.04 2.88 2.82 q1.1 1.86 1.1 4.04 z M159.64 11.46 l2.64 0 q2.2 0 2.2 -2.12 q0 -1.1 -0.55 -1.59 t-1.65 -0.49 l-5.48 0 l0 4.8 q0.62 -0.36 1.4 -0.5 q0.58 -0.1 1.44 -0.1 z M156.79999999999998 20 l-2.18 0 l0 -14.92 l7.66 0 q1.32 0 2.3 0.51 t1.52 1.47 t0.54 2.27 t-0.54 2.29 t-1.53 1.51 t-2.29 0.53 l-2.64 0 q-1.72 0 -2.84 0.6 l0 5.74 z M182.57999999999998 9.74 l-5.1 6.1 l-5.06 -6.1 l0 10.26 l-2.14 0 l0 -12.82 l-1.74 -2.1 l2.82 0 l6.1 7.32 l6.18 -7.32 l2.82 0 l-1.74 2.1 l0 12.82 l-2.14 0 l0 -10.26 z M191.73999999999998 14.02 l0 3.8 l9.2 0 l0 2.18 l-11.38 0 l0 -14.92 l10.5 0 l0 2.2 l-8.32 0 l0 4.52 q0.62 -0.36 1.38 -0.48 q0.56 -0.1 1.44 -0.1 l3.26 0 l0 2.22 l-3.26 0 q-0.82 0 -1.44 0.1 q-0.76 0.14 -1.38 0.48 z M204.87999999999997 7.18 l-1.74 -2.1 l2.82 0 l9.58 11.4 l0 -11.4 l2.2 0 l0 14.92 l-2.16 0 l-8.56 -10.26 l0 10.26 l-2.14 0 l0 -12.82 z M233.23999999999998 7.279999999999999 l-5.26 0 l0 12.72 l-2.12 0 l0 -12.72 l-5.32 0 l0 -2.2 l12.7 0 l0 2.2 z"></path></g></svg>